<?xml version="1.0" encoding="UTF-8"?>
<svg id="_Слой_1" xmlns="http://www.w3.org/2000/svg" version="1.1" viewBox="0 0 2572 1740">
  <!-- Generator: Adobe Illustrator 29.3.1, SVG Export Plug-In . SVG Version: 2.1.0 Build 151)  -->
  <defs>
    <style>
      .st0 {
        fill: #d0d0d0;
      }

      .st1 {
        fill: #ffc804;
      }

      .st2 {
        fill: #fff;
      }

      .st3 {
        fill: #09081e;
      }
    </style>
  </defs>
  <rect class="st1" x="1356.4" y="343.6" width="1090.7" height="474.7" rx="24" ry="24"/>
  <rect class="st0" x="174" y="340.7" width="1090.7" height="474.7" rx="24" ry="24"/>
  <path class="st3" d="M216,122.2v8.1h-32.2v20c2.3-.3,6.7-.6,9.2-.6,7.1,0,14,1.5,19.2,5,5.6,3.6,9.5,9.5,9.5,18.1s-2.4,12.4-6.2,16.2c-6.1,6-16.1,8.3-26.3,8.3s-11.8-.4-15-.9v-74.3h41.8ZM183.9,189.3c2.2.4,4.8.6,8.1.6,6,0,12-1.9,15.7-5.7,2.5-2.7,4.1-6.3,4.1-10.9s-2.4-9.6-6.1-12.2c-3.8-2.7-8.8-3.8-14.1-3.8s-5.2.2-7.6.4v31.6h0Z"/>
  <path class="st3" d="M271.8,183.9c0,4.6.2,9.2.8,12.8h-8.7l-.8-6.7h-.3c-3,4.2-8.7,8-16.4,8s-16.4-7.6-16.4-15.4c0-12.9,11.5-20,32.2-19.9v-1.1c0-4.3-1.2-12.4-12.2-12.3-5.1,0-10.3,1.4-14,4l-2.2-6.5c4.4-2.8,10.9-4.6,17.7-4.6,16.4,0,20.3,11.2,20.3,21.8v20h0ZM262.4,169.4c-10.6-.2-22.7,1.7-22.7,12s4.2,9.3,9.1,9.3c7.1,0,11.6-4.4,13.2-9,.3-1.1.4-2.2.4-3.1v-9.3h0Z"/>
  <path class="st3" d="M291.9,165.7h4.6c8.2,0,13.7-3.8,13.7-8.7s-4.3-7.8-10.4-7.8-9.2,1.5-12.9,3.9l-2.4-6c5.4-3.3,11.6-4.9,17.8-4.9s18.1,3.6,18.1,14-6.1,10.9-12,12.2v.2c8,.8,14.6,5.5,14.6,13.4,0,11.5-11.8,15.9-23.1,15.9s-12.6-1.7-17.3-4.3l2.5-6.6c3.9,2.2,9.2,3.8,14.1,3.8,8.1,0,13.2-3.9,13.2-9.2s-7.5-9.2-15.6-9.2h-4.8v-6.6h-.1Z"/>
  <path class="st3" d="M383.5,169.5c0,19.8-13.8,28.4-26.6,28.4s-25.6-10.6-25.6-27.5,11.8-28.3,26.5-28.3,25.7,11.2,25.7,27.4h0ZM341.2,170.1c0,11.7,6.6,20.6,16.1,20.6s16.2-8.7,16.2-20.8-4.5-20.4-16-20.4-16.4,10.6-16.4,20.7h.1,0Z"/>
  <path class="st3" d="M395.5,143.9c3.9-.7,10.8-1.2,17-1.2,9.1,0,23.9,1.5,23.9,13.4s-5.1,10.8-11.2,12.2v.2c7.8,1.1,13.6,5.4,13.6,13.1,0,14-17.7,15.8-28.2,15.8s-12.3-.4-15.1-.7v-52.8h0ZM404.8,190.4c2.8.2,4.8.3,7.7.3,6.6,0,16.4-1.4,16.4-9.3s-7.8-9.4-17-9.4h-7.1v18.3h0ZM404.9,165.8h7.3c7.2,0,14.6-2.1,14.6-8.5s-4.6-7.8-14.4-7.8-5.3.2-7.5.4v15.9h0Z"/>
  <path class="st3" d="M460.5,143.2v18.1c2-.3,5.1-.7,8.6-.7,11.5,0,23.2,4.8,23.2,18s-2.2,9.5-5.6,12.4c-5.9,5-14.5,6.2-21.5,6.2s-10.3-.3-14.4-.8v-53.3h9.7,0ZM460.4,189.9c2,.3,4.1.4,6.7.4,7.5,0,15.5-3,15.5-11.4s-7.7-11.3-15-11.3-5.2.2-7.2.7v21.5h0ZM508.6,143.2v53.5h-9.6v-53.5h9.6Z"/>
  <path class="st3" d="M530,171.7c.2,13.2,8.5,18.6,18.3,18.6s11.3-1.2,14.8-2.8l1.8,7c-3.4,1.5-9.4,3.4-17.9,3.4-16.5,0-26.3-10.9-26.3-27.1s9.5-28.7,25.1-28.7,22.1,15.2,22.1,25.1,0,3.4-.3,4.5h-37.6,0ZM558.5,164.8c0-6.1-2.5-15.7-13.5-15.7s-14.1,9-14.9,15.7h28.4Z"/>
  <path class="st3" d="M612.7,143.2v45.9h24.6v-45.9h9.6v46.2h5.5c0,.1-.6,24.2-.6,24.2h-7.6l-.4-16.9h-40.9v-53.5h9.8Z"/>
  <path class="st3" d="M663.8,143.9c3.9-.7,10.8-1.2,17-1.2,9.1,0,23.9,1.5,23.9,13.4s-5.1,10.8-11.2,12.2v.2c7.8,1.1,13.6,5.4,13.6,13.1,0,14-17.7,15.8-28.2,15.8s-12.3-.4-15.1-.7v-52.8ZM673.1,190.4c2.8.2,4.8.3,7.7.3,6.6,0,16.4-1.4,16.4-9.3s-7.8-9.4-17-9.4h-7.1v18.3h0ZM673.2,165.8h7.3c7.2,0,14.6-2.1,14.6-8.5s-4.6-7.8-14.4-7.8-5.3.2-7.5.4v15.9h0Z"/>
  <path class="st3" d="M724.8,171.7c.2,13.2,8.5,18.6,18.3,18.6s11.3-1.2,14.8-2.8l1.8,7c-3.4,1.5-9.4,3.4-17.9,3.4-16.5,0-26.3-10.9-26.3-27.1s9.5-28.7,25.1-28.7,22.1,15.2,22.1,25.1,0,3.4-.3,4.5h-37.6,0ZM753.3,164.8c0-6.1-2.5-15.7-13.5-15.7s-14.1,9-14.9,15.7h28.4Z"/>
  <path class="st3" d="M810.4,143.2v7.6h-16.7v45.9h-9.7v-45.9h-16.7v-7.6h43.1Z"/>
  <path class="st3" d="M855.8,183.9c0,4.6.2,9.2.8,12.8h-8.7l-.8-6.7h-.3c-3,4.2-8.7,8-16.4,8s-16.4-7.6-16.4-15.4c0-12.9,11.5-20,32.2-19.9v-1.1c0-4.3-1.2-12.4-12.2-12.3-5.1,0-10.3,1.4-14,4l-2.2-6.5c4.4-2.8,10.9-4.6,17.7-4.6,16.4,0,20.3,11.2,20.3,21.8v20h0ZM846.4,169.4c-10.6-.2-22.7,1.7-22.7,12s4.2,9.3,9.1,9.3c7.1,0,11.6-4.4,13.2-9,.3-1.1.4-2.2.4-3.1v-9.3h0Z"/>
  <path class="st3" d="M237,1010.9c-.6-10.4-1.2-23-1.2-32.2h-.2c-2.7,8.6-5.6,18-9.4,28.3l-13.1,36.1h-7.3l-12.2-35.5c-3.5-10.6-6.4-20.1-8.5-29h-.2c-.2,9.3-.8,21.7-1.4,32.9l-2,31.9h-9.2l5.2-74.5h12.3l12.7,36c3.1,9.2,5.5,17.3,7.5,25.1h.2c2-7.5,4.6-15.7,8-25.1l13.3-36h12.3l4.6,74.5h-9.5l-1.8-32.7v.2h-.1Z"/>
  <path class="st3" d="M311.2,1016.5c0,19.8-13.8,28.4-26.6,28.4s-25.6-10.6-25.6-27.5,11.8-28.3,26.5-28.3,25.7,11.2,25.7,27.4h0ZM268.8,1017c0,11.7,6.6,20.6,16.1,20.6s16.2-8.7,16.2-20.8-4.5-20.4-16-20.4-16.4,10.6-16.4,20.7h0Z"/>
  <path class="st3" d="M332.8,990.2v21.5h25.3v-21.5h9.7v53.5h-9.7v-24.2h-25.3v24.2h-9.7v-53.5h9.7Z"/>
  <path class="st3" d="M432.2,1016.5c0,19.8-13.8,28.4-26.6,28.4s-25.6-10.6-25.6-27.5,11.8-28.3,26.5-28.3,25.7,11.2,25.7,27.4h0ZM389.8,1017c0,11.7,6.6,20.6,16.1,20.6s16.2-8.7,16.2-20.8-4.5-20.4-16-20.4-16.4,10.6-16.4,20.7h0Z"/>
  <path class="st3" d="M447.5,990.2l7.6,11.5c2.1,3,3.8,5.6,5.5,8.6h.2c1.8-3.1,3.5-5.9,5.4-8.7l7.4-11.4h10.6l-18.2,25.9,18.7,27.6h-10.9l-8-12c-2.1-3.1-3.9-6.1-5.7-9.3h-.2c-1.8,3.2-3.5,6.1-5.6,9.3l-7.7,12h-10.7l19-27.3-18.1-26.2h10.8-.1,0Z"/>
  <path class="st3" d="M494.2,1007.6c0-6.9-.2-12.4-.4-17.5h8.6l.6,9.2h.2c3.9-6.5,10.3-10.3,19-10.3,13,0,22.8,10.9,22.8,27.1s-11.8,28.7-24.4,28.7-13.3-3.1-16.5-8.4h-.2v29.1h-9.6v-57.9h-.1ZM503.8,1021.9c0,1.4.1,2.8.4,4,1.8,6.7,7.6,11.4,14.6,11.4,10.3,0,16.2-8.4,16.2-20.7s-5.6-19.8-15.9-19.8-12.9,4.6-14.7,11.9c-.3,1.2-.7,2.7-.7,3.9v9.3h.1Z"/>
  <path class="st3" d="M605.5,1016.5c0,19.8-13.8,28.4-26.6,28.4s-25.6-10.6-25.6-27.5,11.8-28.3,26.5-28.3,25.7,11.2,25.7,27.4h0ZM563.1,1017c0,11.7,6.6,20.6,16.1,20.6s16.2-8.7,16.2-20.8-4.5-20.4-16-20.4-16.4,10.6-16.4,20.7h.1Z"/>
  <path class="st3" d="M618.4,990.2h11.9l9.6,27c1.4,4,3.6,10.5,4.9,14.7h.2c1.2-4.1,4.2-12.5,6.4-18.3l8.5-23.3h12l3.8,53.5h-9.3l-1.2-25.5c-.2-5.9-.7-12.6-.9-19.1h-.3c-1.4,4.9-3,9.1-6,17.3l-10.3,27h-7l-9.5-26.5c-1.8-5-4.1-12.7-5.4-17.7h-.4c-.2,6.3-.4,13.4-.8,19.2l-1.4,25.3h-9l4.1-53.5h.1Z"/>
  <path class="st3" d="M697.7,990.2v21.5h25.3v-21.5h9.7v53.5h-9.7v-24.2h-25.3v24.2h-9.7v-53.5h9.7Z"/>
  <path class="st3" d="M758.1,990.2v18.1c2-.3,5.1-.7,8.6-.7,11.5,0,23.2,4.8,23.2,18s-2.2,9.5-5.6,12.4c-5.9,5-14.5,6.2-21.5,6.2s-10.3-.3-14.4-.8v-53.3h9.7ZM758,1036.8c2,.3,4.1.4,6.7.4,7.5,0,15.5-3,15.5-11.4s-7.7-11.3-15-11.3-5.2.2-7.2.7v21.5h0ZM806.2,990.2v53.5h-9.6v-53.5h9.6Z"/>
  <path class="st3" d="M827.6,1018.7c.2,13.2,8.5,18.6,18.3,18.6s11.3-1.2,14.8-2.8l1.8,7c-3.4,1.5-9.4,3.4-17.9,3.4-16.5,0-26.3-10.9-26.3-27.1s9.5-28.7,25.1-28.7,22.1,15.2,22.1,25.1,0,3.4-.3,4.5h-37.6,0ZM856.1,1011.7c0-6.1-2.5-15.7-13.5-15.7s-14.1,9-14.9,15.7h28.4Z"/>
  <path class="st3" d="M910.3,990.2v45.9h24.6v-45.9h9.6v46.2h5.5l-.6,24.2h-7.6l-.4-16.9h-40.9v-53.5h9.8Z"/>
  <path class="st3" d="M961.4,990.8c3.9-.7,10.8-1.2,17-1.2,9.1,0,23.9,1.5,23.9,13.4s-5.1,10.8-11.2,12.2v.2c7.8,1.1,13.6,5.4,13.6,13.2,0,14-17.7,15.8-28.2,15.8s-12.3-.4-15.1-.7v-52.8h0ZM970.7,1037.3c2.8.2,4.8.3,7.7.3,6.6,0,16.4-1.4,16.4-9.3s-7.8-9.4-17-9.4h-7.1v18.3h0ZM970.8,1012.7h7.3c7.2,0,14.6-2.1,14.6-8.5s-4.6-7.8-14.4-7.8-5.3.2-7.5.4v15.9h0Z"/>
  <path class="st3" d="M1022.4,1018.7c.2,13.2,8.5,18.6,18.3,18.6s11.3-1.2,14.8-2.8l1.8,7c-3.4,1.5-9.4,3.4-17.9,3.4-16.5,0-26.3-10.9-26.3-27.1s9.5-28.7,25.1-28.7,22.1,15.2,22.1,25.1,0,3.4-.3,4.5h-37.6ZM1050.9,1011.7c0-6.1-2.5-15.7-13.5-15.7s-14.1,9-14.9,15.7h28.4Z"/>
  <path class="st3" d="M1108,990.2v7.6h-16.7v45.9h-9.7v-45.9h-16.7v-7.6h43.1,0Z"/>
  <path class="st3" d="M1153.4,1030.8c0,4.6.2,9.2.8,12.8h-8.7l-.8-6.7h-.3c-3,4.2-8.7,8-16.4,8s-16.4-7.6-16.4-15.4c0-12.9,11.5-20,32.2-19.9v-1.1c0-4.3-1.2-12.4-12.2-12.3-5.1,0-10.3,1.4-14,4l-2.2-6.5c4.4-2.8,10.9-4.6,17.7-4.6,16.4,0,20.3,11.2,20.3,21.8v20h0ZM1144,1016.3c-10.6-.2-22.7,1.7-22.7,12s4.2,9.3,9.1,9.3c7.1,0,11.6-4.4,13.2-9,.3-1.1.4-2.2.4-3.1v-9.3h0Z"/>
  <g>
    <path class="st3" d="M2198.7,655.3c-.9,0-1.6-.7-1.6-1.6v-15.4c0-.4,0-.9.4-1.1l49.8-54.8c2.2-2.5.4-6.3-2.7-6.3h-45.8c-.9,0-1.6-.7-1.6-1.6v-17.2c0-.9.7-1.6,1.6-1.6h79.1c.9,0,1.6.7,1.6,1.6v15.4c0,.4,0,.7-.4,1.1l-46.5,55c-2,2.5-.2,6.3,2.9,6.3h42.5c.9,0,1.6.7,1.6,1.6v17.2c0,.9-.7,1.6-1.6,1.6h-79.1l-.2-.2Z"/>
    <path class="st3" d="M2133.4,656.7c-4.7,0-9.2-.7-13.2-1.8-4.2-1.3-7.8-3.1-11.2-5.6-3.4-2.5-6-5.6-8-9.4-1.8-3.8-2.9-8.3-2.9-13.2s1.3-11.6,3.8-15.6c2.5-4.2,6-7.4,10.3-9.4,4.5-2.2,9.4-3.6,15-4.2,5.6-.9,8.5-1.3,17.4-1.3s10.5.4,14.5.9c3.1.2,5.8-2,5.1-5.1-.7-2.7-1.3-5.4-2.2-7.4-1.3-3.4-3.6-5.8-6.7-7.8-2.9-1.8-6.7-2.9-11.4-2.9s-5.8.4-8.5,1.1c-2.5.7-4.7,1.8-6.7,3.1-1.6,1.1-2.7,2.7-3.4,4.5-.2.7-.9,1.1-1.6,1.1h-20.6c-1.1,0-1.8-.9-1.6-2,.9-4.2,2.7-8,4.9-11.4,2.7-3.8,6-6.9,10.1-9.4,4-2.5,8.5-4.2,13.2-5.4,4.7-1.3,9.6-1.8,14.5-1.8,14.5,0,25,4.2,31.7,12.5,6.7,8.3,10.1,20.1,10.1,35.1v52.1c0,.9-.7,1.6-1.6,1.6h-17.2c-.9,0-1.6-.7-1.6-1.6v-6c-.4-1.8-2.7-2.5-3.8-1.1-2.2,2.2-4.5,4-7.2,5.4-4,2-8,3.4-11.8,3.8-3.8.7-6.9.9-9.6.9v.4ZM2138.1,637.9c5.1,0,9.6-.9,13.4-2.9,4-1.8,6.9-4.5,9.4-8,2.5-3.4,3.6-7.4,3.6-11.8v-3.8s-9.4.4-14.5.4-9.8,0-12.7.4c-2.9,0-5.6.7-8,1.6-2.5.7-4.2,2-5.8,3.6-1.3,1.6-2,4-2,6.9s.7,5.6,2.2,7.4,3.8,3.4,6.3,4.2c2.7,1.1,5.4,1.6,8.3,1.6v.4Z"/>
    <path class="st3" d="M2066.2,655.3c-.9,0-1.6-.7-1.6-1.6v-130.5c0-.9.7-1.6,1.6-1.6h19.7c.9,0,1.6.7,1.6,1.6v130.5c0,.9-.7,1.6-1.6,1.6h-19.7Z"/>
    <path class="st3" d="M2025.3,655.3c-.9,0-1.6-.7-1.6-1.6v-130.5c0-.9.7-1.6,1.6-1.6h19.7c.9,0,1.6.7,1.6,1.6v130.5c0,.9-.7,1.6-1.6,1.6h-19.7Z"/>
    <path class="st3" d="M1983.7,655.3c-.9,0-1.6-.7-1.6-1.6v-96.6c0-.9.7-1.6,1.6-1.6h19.7c.9,0,1.6.7,1.6,1.6v96.6c0,.9-.7,1.6-1.6,1.6h-19.7ZM1993.5,544c-4.5,0-8-1.3-10.5-4-2.7-2.7-4-6-4-10.5s1.3-7.6,4.2-10.3c2.7-2.7,6.3-4.2,10.5-4.2s7.6,1.3,10.5,4c2.9,2.7,4.2,6,4.2,10.5s-1.3,7.8-4.2,10.5c-2.7,2.7-6.3,4-10.5,4h-.2Z"/>
    <path class="st3" d="M1881.3,655.3c-.9,0-1.6-.7-1.6-1.6v-130.5c0-.9.7-1.6,1.6-1.6h19.7c.9,0,1.6.7,1.6,1.6v64.8c0,3.8,2.9,6.7,6.7,6.7h1.8c2.7,0,5.1-1.3,6.7-3.6l23.5-34.9c.2-.4.9-.7,1.3-.7h23.5c1.3,0,2.2,1.6,1.3,2.7l-29.3,43.1c-.7,1.1-.7,2.7,0,3.8l32,47.8c.7,1.1,0,2.7-1.3,2.7h-24.6c-.7,0-1.1-.2-1.3-.7l-25-38.4c-1.6-2.2-4-3.6-6.7-3.6h-1.8c-3.8,0-6.7,2.9-6.7,6.7v34.4c0,.9-.7,1.6-1.6,1.6h-19.7v-.4Z"/>
    <path class="st3" d="M1817.9,656.9c-8.9,0-17.4-1.3-25.5-4-7.8-2.7-14.3-7.2-19.7-13-4.9-5.6-8.3-13-10.1-21.7,0-1.1.7-2,1.6-2h20.8c.7,0,1.3.4,1.6,1.1,1.6,4.5,3.8,7.8,6.7,10.3,3.4,2.7,7.4,4.7,11.8,5.8,4.5,1.1,9.2,1.6,13.9,1.6s8-.4,11.8-1.6,6.9-2.9,9.4-5.6c2.5-2.5,3.8-5.8,3.8-10.1s-.7-5.6-2-7.6c-1.3-2-3.1-3.6-5.6-4.9-2.2-1.3-5.1-2.5-8.3-3.1-3.1-1.1-6.5-1.8-10.3-2.7-3.6-.7-7.2-1.6-10.7-2.5-3.6-.9-6.9-2-10.1-3.4-4-1.3-8-2.9-11.8-4.7-3.6-1.8-6.9-4.2-9.6-6.9-2.7-2.7-4.7-6-6.5-9.8-1.6-4-2.5-8.5-2.5-14.1s1.1-11.4,3.1-15.9c2.2-4.5,4.9-8.3,8.3-11.2,3.6-2.9,7.4-5.1,11.8-6.9,4.5-1.6,8.9-2.9,13.6-3.6s9.4-1.1,13.6-1.1c8.3,0,15.9,1.3,22.8,4.2,6.9,2.7,12.7,7.2,17,13,4,5.4,6.7,12.3,7.4,20.6,0,.9-.7,1.8-1.6,1.8h-19.7c-.9,0-1.6-.7-1.8-1.6-.7-3.6-2-6.5-4.2-8.7-2.5-2.7-5.6-4.5-9.4-5.6-3.8-1.3-7.8-1.8-12.3-1.8s-6,.2-9.2.7c-2.9.4-5.6,1.3-8,2.7-2.2,1.3-4.2,2.9-5.6,5.1-1.3,2-2,4.7-2,7.8s.7,5.1,2,7.4c1.3,2,3.4,3.8,5.6,5.1,2.5,1.3,5.6,2.7,8.9,3.8,4.5,1.8,9.2,3.1,14.3,4,5.4.9,10.3,2,15,3.6,4.5,1.3,8.7,2.9,12.5,4.7,4,1.8,7.2,4,10.1,6.7,2.7,2.5,4.9,5.6,6.5,9.4,1.6,3.6,2.5,8,2.5,13.2,0,7.6-1.3,14.1-4.2,19.2-2.7,5.1-6.5,9.4-11.2,12.7-4.7,3.4-10.1,5.6-16.1,7.2-6,1.3-12.3,2-18.8,2l.2.2Z"/>
    <path class="st3" d="M1603.1,525c0-11.2,8.9-20.1,20.1-20.1h92.3c11.2,0,20.1,8.9,20.1,20.1s-8.9,20.1-20.1,20.1h-82.5c-11.4,0-11.6,14.8,0,14.8h54.8c2.9,0,5.4,2.5,5.4,5.4v29.5c0,2.9-2.5,5.4-5.4,5.4h-22.6c-8.5,0-15.2,2-18.6,9.6-2.2,4.7-2.2,9.6,1.1,13.9s6.5,8,6.5,8c1.8,2,1.8,5.1,0,7.2l-13.2,14.8c-1.1,1.1-2.5,1.8-4,1.8h-94.5c-1.6,0-2.9-.7-4-1.8l-13.2-14.8c-1.8-2-1.8-5.1,0-7.2l13.2-14.8c1.1-1.1,2.5-1.8,4-1.8h83.1c10.3,0,10.3-15,0-15h-55c-2.9,0-5.4-2.5-5.4-5.4v-29.5c0-2.9,2.5-5.4,5.4-5.4h26.6c7.2,0,11.8-3.6,14.1-7.8,4-7.2-2.5-12.3-4.5-15.6s-3.6-7.2-3.6-11.6l-.2.2Z"/>
  </g>
  <g>
    <path class="st3" d="M1096.8,574c.4-.4.4-.7.4-1.1v-15.4c0-.9-.7-1.6-1.6-1.6h-79.1c-.9,0-1.6.7-1.6,1.6v17.2c0,.9.7,1.6,1.6,1.6h45.8c3.1,0,4.9,3.8,2.7,6.3l-49.8,54.8c-.4.2-.4.7-.4,1.1v15.4c0,.9.7,1.6,1.6,1.6l.2.2h79.1c.9,0,1.6-.7,1.6-1.6v-17.2c0-.9-.7-1.6-1.6-1.6h-42.5c-3.1,0-4.9-3.8-2.9-6.3l46.5-55Z"/>
    <path class="st3" d="M962,553.6c-4.9,0-9.8.4-14.5,1.8-4.7,1.1-9.2,2.9-13.2,5.4-4,2.5-7.4,5.6-10.1,9.4-2.2,3.4-4,7.2-4.9,11.4-.2,1.1.4,2,1.6,2h20.6c.7,0,1.3-.4,1.6-1.1.7-1.8,1.8-3.4,3.4-4.5,2-1.3,4.2-2.5,6.7-3.1,2.7-.7,3.8-1.1,8.5-1.1s8.5,1.1,11.4,2.9c3.1,2,5.4,4.5,6.7,7.8.9,2,1.6,4.7,2.2,7.4.7,3.1-2,5.4-5.1,5.1-4-.4-5.6-.9-14.5-.9s-11.8.4-17.4,1.3c-5.6.7-10.5,2-15,4.2-4.2,2-7.8,5.1-10.3,9.4-2.5,4-3.8,10.7-3.8,15.6s1.1,9.4,2.9,13.2c2,3.8,4.7,6.9,8,9.4,3.4,2.5,6.9,4.2,11.2,5.6,4,1.1,8.5,1.8,13.2,1.8v-.4c2.7,0,5.8-.2,9.6-.9,3.8-.4,7.8-1.8,11.8-3.8,2.7-1.3,4.9-3.1,7.2-5.4,1.1-1.3,3.4-.7,3.8,1.1v6c0,.9.7,1.6,1.6,1.6h17.2c.9,0,1.6-.7,1.6-1.6v-52.1c0-15-3.4-26.8-10.1-35.1-6.7-8.3-17.2-12.5-31.7-12.5ZM982.1,615.1c0,4.5-1.1,8.5-3.6,11.8-2.5,3.6-5.4,6.3-9.4,8-3.8,2-8.3,2.9-13.4,2.9v-.4c-2.9,0-5.6-.4-8.3-1.6-2.5-.9-4.7-2.5-6.3-4.2s-2.2-4.5-2.2-7.4.7-5.4,2-6.9c1.6-1.6,3.4-2.9,5.8-3.6,2.5-.9,5.1-1.6,8-1.6,2.9-.4,7.6-.4,12.7-.4s14.5-.4,14.5-.4v3.8Z"/>
    <path class="st3" d="M883.8,521.7h19.7c.9,0,1.6.7,1.6,1.6v130.5c0,.9-.7,1.6-1.6,1.6h-19.7c-.9,0-1.6-.7-1.6-1.6v-130.5c0-.9.7-1.6,1.6-1.6Z"/>
    <path class="st3" d="M842.9,521.7h19.7c.9,0,1.6.7,1.6,1.6v130.5c0,.9-.7,1.6-1.6,1.6h-19.7c-.9,0-1.6-.7-1.6-1.6v-130.5c0-.9.7-1.6,1.6-1.6Z"/>
    <path class="st3" d="M801.3,555.7h19.7c.9,0,1.6.7,1.6,1.6v96.6c0,.9-.7,1.6-1.6,1.6h-19.7c-.9,0-1.6-.7-1.6-1.6v-96.6c0-.9.7-1.6,1.6-1.6Z"/>
    <path class="st3" d="M811.3,515c-4.2,0-7.8,1.6-10.5,4.2-2.9,2.7-4.2,5.8-4.2,10.3s1.3,7.8,4,10.5c2.5,2.7,6,4,10.5,4h.2c4.2,0,7.8-1.3,10.5-4,2.9-2.7,4.2-6,4.2-10.5s-1.3-7.8-4.2-10.5c-2.9-2.7-6.3-4-10.5-4Z"/>
    <path class="st3" d="M755.7,605.3c-.7-1.1-.7-2.7,0-3.8l29.3-43.1c.9-1.1,0-2.7-1.3-2.7h-23.5c-.4,0-1.1.2-1.3.7l-23.5,34.9c-1.6,2.2-4,3.6-6.7,3.6h-1.8c-3.8,0-6.7-2.9-6.7-6.7v-64.8c0-.9-.7-1.6-1.6-1.6h-19.7c-.9,0-1.6.7-1.6,1.6v130.5c0,.9.7,1.6,1.6,1.6v.4h19.7c.9,0,1.6-.7,1.6-1.6v-34.4c0-3.8,2.9-6.7,6.7-6.7h1.8c2.7,0,5.1,1.3,6.7,3.6l25,38.4c.2.4.7.7,1.3.7h24.6c1.3,0,2-1.6,1.3-2.7l-32-47.8Z"/>
    <path class="st3" d="M676.6,593c-2.9-2.7-6-4.9-10.1-6.7-3.8-1.8-8-3.4-12.5-4.7-4.7-1.6-9.6-2.7-15-3.6-5.1-.9-9.8-2.2-14.3-4-3.4-1.1-6.5-2.5-8.9-3.8-2.2-1.3-4.2-3.1-5.6-5.1-1.3-2.2-2-4.2-2-7.4s.7-5.8,2-7.8c1.3-2.2,3.4-3.8,5.6-5.1,2.5-1.3,5.1-2.2,8-2.7,3.1-.4,4.7-.7,9.2-.7s8.5.4,12.3,1.8c3.8,1.1,6.9,2.9,9.4,5.6,2.2,2.2,3.6,5.1,4.2,8.7.2.9.9,1.6,1.8,1.6h19.7c.9,0,1.6-.9,1.6-1.8-.7-8.3-3.4-15.2-7.4-20.6-4.2-5.8-10.1-10.3-17-13-6.9-2.9-14.5-4.2-22.8-4.2s-8.9.4-13.6,1.1c-4.7.7-9.2,2-13.6,3.6-4.5,1.8-8.3,4-11.8,6.9-3.4,2.9-6,6.7-8.3,11.2-2,4.5-3.1,10.3-3.1,15.9s.9,10.1,2.5,14.1c1.8,3.8,3.8,7.2,6.5,9.8s6,5.1,9.6,6.9c3.8,1.8,7.8,3.4,11.8,4.7,3.1,1.3,6.5,2.5,10.1,3.4s7.2,1.8,10.7,2.5c3.8.9,7.2,1.6,10.3,2.7,3.1.7,6,1.8,8.3,3.1,2.5,1.3,4.2,2.9,5.6,4.9s2,3.4,2,7.6-1.3,7.6-3.8,10.1c-2.5,2.7-5.6,4.5-9.4,5.6s-7.2,1.6-11.8,1.6-9.4-.4-13.9-1.6-8.5-3.1-11.8-5.8c-2.9-2.5-5.1-5.8-6.7-10.3-.2-.7-.9-1.1-1.6-1.1h-20.8c-.9,0-1.6.9-1.6,2,1.8,8.7,5.1,16.1,10.1,21.7,5.4,5.8,11.8,10.3,19.7,13,8,2.7,16.5,4,25.5,4l-.2-.2c6.5,0,12.7-.7,18.8-2,6-1.6,11.4-3.8,16.1-7.2,4.7-3.4,8.5-7.6,11.2-12.7,2.9-5.1,4.2-11.6,4.2-19.2s-.9-9.6-2.5-13.2c-1.6-3.8-3.8-6.9-6.5-9.4Z"/>
    <path class="st3" d="M533.1,504.9h-92.3c-11.2,0-20.1,8.9-20.1,20.1l.2-.2c0,4.5,1.6,8.3,3.6,11.6,2,3.4,8.5,8.5,4.5,15.6-2.2,4.2-6.9,7.8-14.1,7.8h-26.6c-2.9,0-5.4,2.5-5.4,5.4v29.5c0,2.9,2.5,5.4,5.4,5.4h55c10.3,0,10.3,15,0,15h-83.1c-1.6,0-2.9.7-4,1.8l-13.2,14.8c-1.8,2-1.8,5.1,0,7.2l13.2,14.8c1.1,1.1,2.5,1.8,4,1.8h94.5c1.6,0,2.9-.7,4-1.8l13.2-14.8c1.8-2,1.8-5.1,0-7.2,0,0-3.1-3.8-6.5-8-3.4-4.2-3.4-9.2-1.1-13.9,3.4-7.6,10.1-9.6,18.6-9.6h22.6c2.9,0,5.4-2.5,5.4-5.4v-29.5c0-2.9-2.5-5.4-5.4-5.4h-54.8c-11.6,0-11.4-14.8,0-14.8h82.5c11.2,0,20.1-8.9,20.1-20.1s-8.9-20.1-20.1-20.1Z"/>
  </g>
  <rect class="st3" x="1331.9" y="1153.1" width="1090.7" height="474.7" rx="24" ry="24"/>
  <rect class="st2" x="149.4" y="1150.3" width="1090.7" height="474.7" rx="24" ry="24"/>
  <g>
    <path class="st2" d="M2174.1,1464.8c-.9,0-1.6-.7-1.6-1.6v-15.4c0-.4,0-.9.4-1.1l49.8-54.8c2.2-2.5.4-6.3-2.7-6.3h-45.8c-.9,0-1.6-.7-1.6-1.6v-17.2c0-.9.7-1.6,1.6-1.6h79.1c.9,0,1.6.7,1.6,1.6v15.4c0,.4,0,.7-.4,1.1l-46.5,55c-2,2.5-.2,6.3,2.9,6.3h42.5c.9,0,1.6.7,1.6,1.6v17.2c0,.9-.7,1.6-1.6,1.6h-79.1l-.2-.2Z"/>
    <path class="st2" d="M2108.9,1466.2c-4.7,0-9.2-.7-13.2-1.8-4.2-1.3-7.8-3.1-11.2-5.6-3.4-2.5-6-5.6-8-9.4-1.8-3.8-2.9-8.3-2.9-13.2s1.3-11.6,3.8-15.6c2.5-4.2,6-7.4,10.3-9.4,4.5-2.2,9.4-3.6,15-4.2,5.6-.9,8.5-1.3,17.4-1.3s10.5.4,14.5.9c3.1.2,5.8-2,5.1-5.1-.7-2.7-1.3-5.4-2.2-7.4-1.3-3.4-3.6-5.8-6.7-7.8-2.9-1.8-6.7-2.9-11.4-2.9s-5.8.4-8.5,1.1c-2.5.7-4.7,1.8-6.7,3.1-1.6,1.1-2.7,2.7-3.4,4.5-.2.7-.9,1.1-1.6,1.1h-20.6c-1.1,0-1.8-.9-1.6-2,.9-4.2,2.7-8,4.9-11.4,2.7-3.8,6-6.9,10.1-9.4,4-2.5,8.5-4.2,13.2-5.4,4.7-1.3,9.6-1.8,14.5-1.8,14.5,0,25,4.2,31.7,12.5,6.7,8.3,10.1,20.1,10.1,35.1v52.1c0,.9-.7,1.6-1.6,1.6h-17.2c-.9,0-1.6-.7-1.6-1.6v-6c-.4-1.8-2.7-2.5-3.8-1.1-2.2,2.2-4.5,4-7.2,5.4-4,2-8,3.4-11.8,3.8-3.8.7-6.9.9-9.6.9v.4ZM2113.6,1447.4c5.1,0,9.6-.9,13.4-2.9,4-1.8,6.9-4.5,9.4-8,2.5-3.4,3.6-7.4,3.6-11.8v-3.8s-9.4.4-14.5.4-9.8,0-12.7.4c-2.9,0-5.6.7-8,1.6-2.5.7-4.2,2-5.8,3.6-1.3,1.6-2,4-2,6.9s.7,5.6,2.2,7.4,3.8,3.4,6.3,4.2c2.7,1.1,5.4,1.6,8.3,1.6v.4Z"/>
    <path class="st2" d="M2041.6,1464.8c-.9,0-1.6-.7-1.6-1.6v-130.5c0-.9.7-1.6,1.6-1.6h19.7c.9,0,1.6.7,1.6,1.6v130.5c0,.9-.7,1.6-1.6,1.6h-19.7Z"/>
    <path class="st2" d="M2000.7,1464.8c-.9,0-1.6-.7-1.6-1.6v-130.5c0-.9.7-1.6,1.6-1.6h19.7c.9,0,1.6.7,1.6,1.6v130.5c0,.9-.7,1.6-1.6,1.6h-19.7Z"/>
    <path class="st2" d="M1959.1,1464.8c-.9,0-1.6-.7-1.6-1.6v-96.6c0-.9.7-1.6,1.6-1.6h19.7c.9,0,1.6.7,1.6,1.6v96.6c0,.9-.7,1.6-1.6,1.6h-19.7ZM1969,1353.5c-4.5,0-8-1.3-10.5-4-2.7-2.7-4-6-4-10.5s1.3-7.6,4.2-10.3c2.7-2.7,6.3-4.2,10.5-4.2s7.6,1.3,10.5,4c2.9,2.7,4.2,6,4.2,10.5s-1.3,7.8-4.2,10.5c-2.7,2.7-6.3,4-10.5,4h-.2Z"/>
    <path class="st2" d="M1856.8,1464.8c-.9,0-1.6-.7-1.6-1.6v-130.5c0-.9.7-1.6,1.6-1.6h19.7c.9,0,1.6.7,1.6,1.6v64.8c0,3.8,2.9,6.7,6.7,6.7h1.8c2.7,0,5.1-1.3,6.7-3.6l23.5-34.9c.2-.4.9-.7,1.3-.7h23.5c1.3,0,2.2,1.6,1.3,2.7l-29.3,43.1c-.7,1.1-.7,2.7,0,3.8l32,47.8c.7,1.1,0,2.7-1.3,2.7h-24.6c-.7,0-1.1-.2-1.3-.7l-25-38.4c-1.6-2.2-4-3.6-6.7-3.6h-1.8c-3.8,0-6.7,2.9-6.7,6.7v34.4c0,.9-.7,1.6-1.6,1.6h-19.7v-.4Z"/>
    <path class="st2" d="M1793.3,1466.4c-8.9,0-17.4-1.3-25.5-4-7.8-2.7-14.3-7.2-19.7-13-4.9-5.6-8.3-13-10.1-21.7,0-1.1.7-2,1.6-2h20.8c.7,0,1.3.4,1.6,1.1,1.6,4.5,3.8,7.8,6.7,10.3,3.4,2.7,7.4,4.7,11.8,5.8,4.5,1.1,9.2,1.6,13.9,1.6s8-.4,11.8-1.6c3.8-1.1,6.9-2.9,9.4-5.6,2.5-2.5,3.8-5.8,3.8-10.1s-.7-5.6-2-7.6c-1.3-2-3.1-3.6-5.6-4.9-2.2-1.3-5.1-2.5-8.3-3.1-3.1-1.1-6.5-1.8-10.3-2.7-3.6-.7-7.2-1.6-10.7-2.5-3.6-.9-6.9-2-10.1-3.4-4-1.3-8-2.9-11.8-4.7-3.6-1.8-6.9-4.2-9.6-6.9-2.7-2.7-4.7-6-6.5-9.8-1.6-4-2.5-8.5-2.5-14.1s1.1-11.4,3.1-15.9c2.2-4.5,4.9-8.3,8.3-11.2,3.6-2.9,7.4-5.1,11.8-6.9,4.5-1.6,8.9-2.9,13.6-3.6s9.4-1.1,13.6-1.1c8.3,0,15.9,1.3,22.8,4.2,6.9,2.7,12.7,7.2,17,13,4,5.4,6.7,12.3,7.4,20.6,0,.9-.7,1.8-1.6,1.8h-19.7c-.9,0-1.6-.7-1.8-1.6-.7-3.6-2-6.5-4.2-8.7-2.5-2.7-5.6-4.5-9.4-5.6-3.8-1.3-7.8-1.8-12.3-1.8s-6,.2-9.2.7c-2.9.4-5.6,1.3-8,2.7-2.2,1.3-4.2,2.9-5.6,5.1-1.3,2-2,4.7-2,7.8s.7,5.1,2,7.4c1.3,2,3.4,3.8,5.6,5.1,2.5,1.3,5.6,2.7,8.9,3.8,4.5,1.8,9.2,3.1,14.3,4,5.4.9,10.3,2,15,3.6,4.5,1.3,8.7,2.9,12.5,4.7,4,1.8,7.2,4,10.1,6.7,2.7,2.5,4.9,5.6,6.5,9.4,1.6,3.6,2.5,8,2.5,13.2,0,7.6-1.3,14.1-4.2,19.2-2.7,5.1-6.5,9.4-11.2,12.7-4.7,3.4-10.1,5.6-16.1,7.2-6,1.3-12.3,2-18.8,2l.2.2Z"/>
    <path class="st2" d="M1578.5,1334.5c0-11.2,8.9-20.1,20.1-20.1h92.3c11.2,0,20.1,8.9,20.1,20.1s-8.9,20.1-20.1,20.1h-82.5c-11.4,0-11.6,14.8,0,14.8h54.8c2.9,0,5.4,2.5,5.4,5.4v29.5c0,2.9-2.5,5.4-5.4,5.4h-22.6c-8.5,0-15.2,2-18.6,9.6-2.2,4.7-2.2,9.6,1.1,13.9,3.4,4.2,6.5,8,6.5,8,1.8,2,1.8,5.1,0,7.2l-13.2,14.8c-1.1,1.1-2.5,1.8-4,1.8h-94.5c-1.6,0-2.9-.7-4-1.8l-13.2-14.8c-1.8-2-1.8-5.1,0-7.2l13.2-14.8c1.1-1.1,2.5-1.8,4-1.8h83.1c10.3,0,10.3-15,0-15h-55c-2.9,0-5.4-2.5-5.4-5.4v-29.5c0-2.9,2.5-5.4,5.4-5.4h26.6c7.2,0,11.8-3.6,14.1-7.8,4-7.2-2.5-12.3-4.5-15.6s-3.6-7.2-3.6-11.6l-.2.2Z"/>
  </g>
  <g>
    <path class="st3" d="M1072.2,1383.5c.4-.4.4-.7.4-1.1v-15.4c0-.9-.7-1.6-1.6-1.6h-79.1c-.9,0-1.6.7-1.6,1.6v17.2c0,.9.7,1.6,1.6,1.6h45.8c3.1,0,4.9,3.8,2.7,6.3l-49.8,54.8c-.4.2-.4.7-.4,1.1v15.4c0,.9.7,1.6,1.6,1.6l.2.2h79.1c.9,0,1.6-.7,1.6-1.6v-17.2c0-.9-.7-1.6-1.6-1.6h-42.5c-3.1,0-4.9-3.8-2.9-6.3l46.5-55Z"/>
    <path class="st3" d="M937.4,1363.1c-4.9,0-9.8.4-14.5,1.8-4.7,1.1-9.2,2.9-13.2,5.4-4,2.5-7.4,5.6-10.1,9.4-2.2,3.4-4,7.2-4.9,11.4-.2,1.1.4,2,1.6,2h20.6c.7,0,1.3-.4,1.6-1.1.7-1.8,1.8-3.4,3.4-4.5,2-1.3,4.2-2.5,6.7-3.1,2.7-.7,3.8-1.1,8.5-1.1s8.5,1.1,11.4,2.9c3.1,2,5.4,4.5,6.7,7.8.9,2,1.6,4.7,2.2,7.4.7,3.1-2,5.4-5.1,5.1-4-.4-5.6-.9-14.5-.9s-11.8.4-17.4,1.3c-5.6.7-10.5,2-15,4.2-4.2,2-7.8,5.1-10.3,9.4-2.5,4-3.8,10.7-3.8,15.6s1.1,9.4,2.9,13.2c2,3.8,4.7,6.9,8,9.4,3.4,2.5,6.9,4.2,11.2,5.6,4,1.1,8.5,1.8,13.2,1.8v-.4c2.7,0,5.8-.2,9.6-.9,3.8-.4,7.8-1.8,11.8-3.8,2.7-1.3,4.9-3.1,7.2-5.4,1.1-1.3,3.4-.7,3.8,1.1v6c0,.9.7,1.6,1.6,1.6h17.2c.9,0,1.6-.7,1.6-1.6v-52.1c0-15-3.4-26.8-10.1-35.1-6.7-8.3-17.2-12.5-31.7-12.5ZM957.5,1424.6c0,4.5-1.1,8.5-3.6,11.8-2.5,3.6-5.4,6.3-9.4,8-3.8,2-8.3,2.9-13.4,2.9v-.4c-2.9,0-5.6-.4-8.3-1.6-2.5-.9-4.7-2.5-6.3-4.2s-2.2-4.5-2.2-7.4.7-5.4,2-6.9c1.6-1.6,3.4-2.9,5.8-3.6,2.5-.9,5.1-1.6,8-1.6,2.9-.4,7.6-.4,12.7-.4s14.5-.4,14.5-.4v3.8Z"/>
    <path class="st3" d="M859.2,1331.2h19.7c.9,0,1.6.7,1.6,1.6v130.5c0,.9-.7,1.6-1.6,1.6h-19.7c-.9,0-1.6-.7-1.6-1.6v-130.5c0-.9.7-1.6,1.6-1.6Z"/>
    <path class="st3" d="M818.3,1331.2h19.7c.9,0,1.6.7,1.6,1.6v130.5c0,.9-.7,1.6-1.6,1.6h-19.7c-.9,0-1.6-.7-1.6-1.6v-130.5c0-.9.7-1.6,1.6-1.6Z"/>
    <path class="st3" d="M776.7,1365.2h19.7c.9,0,1.6.7,1.6,1.6v96.6c0,.9-.7,1.6-1.6,1.6h-19.7c-.9,0-1.6-.7-1.6-1.6v-96.6c0-.9.7-1.6,1.6-1.6Z"/>
    <path class="st3" d="M786.8,1324.5c-4.2,0-7.8,1.6-10.5,4.2-2.9,2.7-4.2,5.8-4.2,10.3s1.3,7.8,4,10.5c2.5,2.7,6,4,10.5,4h.2c4.2,0,7.8-1.3,10.5-4,2.9-2.7,4.2-6,4.2-10.5s-1.3-7.8-4.2-10.5c-2.9-2.7-6.3-4-10.5-4Z"/>
    <path class="st3" d="M731.1,1414.8c-.7-1.1-.7-2.7,0-3.8l29.3-43.1c.9-1.1,0-2.7-1.3-2.7h-23.5c-.4,0-1.1.2-1.3.7l-23.5,34.9c-1.6,2.2-4,3.6-6.7,3.6h-1.8c-3.8,0-6.7-2.9-6.7-6.7v-64.8c0-.9-.7-1.6-1.6-1.6h-19.7c-.9,0-1.6.7-1.6,1.6v130.5c0,.9.7,1.6,1.6,1.6v.4h19.7c.9,0,1.6-.7,1.6-1.6v-34.4c0-3.8,2.9-6.7,6.7-6.7h1.8c2.7,0,5.1,1.3,6.7,3.6l25,38.4c.2.4.7.7,1.3.7h24.6c1.3,0,2-1.6,1.3-2.7l-32-47.8Z"/>
    <path class="st3" d="M652,1402.5c-2.9-2.7-6-4.9-10.1-6.7-3.8-1.8-8-3.4-12.5-4.7-4.7-1.6-9.6-2.7-15-3.6-5.1-.9-9.8-2.2-14.3-4-3.4-1.1-6.5-2.5-8.9-3.8-2.2-1.3-4.2-3.1-5.6-5.1-1.3-2.2-2-4.2-2-7.4s.7-5.8,2-7.8c1.3-2.2,3.4-3.8,5.6-5.1,2.5-1.3,5.1-2.2,8-2.7,3.1-.4,4.7-.7,9.2-.7s8.5.4,12.3,1.8c3.8,1.1,6.9,2.9,9.4,5.6,2.2,2.2,3.6,5.1,4.2,8.7.2.9.9,1.6,1.8,1.6h19.7c.9,0,1.6-.9,1.6-1.8-.7-8.3-3.4-15.2-7.4-20.6-4.2-5.8-10.1-10.3-17-13-6.9-2.9-14.5-4.2-22.8-4.2s-8.9.4-13.6,1.1c-4.7.7-9.2,2-13.6,3.6-4.5,1.8-8.3,4-11.8,6.9-3.4,2.9-6,6.7-8.3,11.2-2,4.5-3.1,10.3-3.1,15.9s.9,10.1,2.5,14.1c1.8,3.8,3.8,7.2,6.5,9.8s6,5.1,9.6,6.9c3.8,1.8,7.8,3.4,11.8,4.7,3.1,1.3,6.5,2.5,10.1,3.4s7.2,1.8,10.7,2.5c3.8.9,7.2,1.6,10.3,2.7,3.1.7,6,1.8,8.3,3.1,2.5,1.3,4.2,2.9,5.6,4.9s2,3.4,2,7.6-1.3,7.6-3.8,10.1c-2.5,2.7-5.6,4.5-9.4,5.6s-7.2,1.6-11.8,1.6-9.4-.4-13.9-1.6-8.5-3.1-11.8-5.8c-2.9-2.5-5.1-5.8-6.7-10.3-.2-.7-.9-1.1-1.6-1.1h-20.8c-.9,0-1.6.9-1.6,2,1.8,8.7,5.1,16.1,10.1,21.7,5.4,5.8,11.8,10.3,19.7,13,8,2.7,16.5,4,25.5,4l-.2-.2c6.5,0,12.7-.7,18.8-2,6-1.6,11.4-3.8,16.1-7.2,4.7-3.4,8.5-7.6,11.2-12.7,2.9-5.1,4.2-11.6,4.2-19.2s-.9-9.6-2.5-13.2c-1.6-3.8-3.8-6.9-6.5-9.4Z"/>
    <path class="st3" d="M508.5,1314.4h-92.3c-11.2,0-20.1,8.9-20.1,20.1l.2-.2c0,4.5,1.6,8.3,3.6,11.6,2,3.4,8.5,8.5,4.5,15.6-2.2,4.2-6.9,7.8-14.1,7.8h-26.6c-2.9,0-5.4,2.5-5.4,5.4v29.5c0,2.9,2.5,5.4,5.4,5.4h55c10.3,0,10.3,15,0,15h-83.1c-1.6,0-2.9.7-4,1.8l-13.2,14.8c-1.8,2-1.8,5.1,0,7.2l13.2,14.8c1.1,1.1,2.5,1.8,4,1.8h94.5c1.6,0,2.9-.7,4-1.8l13.2-14.8c1.8-2,1.8-5.1,0-7.2,0,0-3.1-3.8-6.5-8-3.4-4.2-3.4-9.2-1.1-13.9,3.4-7.6,10.1-9.6,18.6-9.6h22.6c2.9,0,5.4-2.5,5.4-5.4v-29.5c0-2.9-2.5-5.4-5.4-5.4h-54.8c-11.6,0-11.4-14.8,0-14.8h82.5c11.2,0,20.1-8.9,20.1-20.1s-8.9-20.1-20.1-20.1Z"/>
  </g>
</svg>